<?xml version="1.0" standalone="no"?>
<!DOCTYPE svg PUBLIC "-//W3C//DTD SVG 20010904//EN"
 "http://www.w3.org/TR/2001/REC-SVG-20010904/DTD/svg10.dtd">
<svg version="1.0" xmlns="http://www.w3.org/2000/svg"
 width="2160.000000pt" height="2160.000000pt" viewBox="0 0 2160.000000 2160.000000"
 preserveAspectRatio="xMidYMid meet">

<g transform="translate(0.000000,2160.000000) scale(0.100000,-0.100000)"
fill="#000000" stroke="none">
<path d="M10330 19429 c-646 -60 -1212 -300 -1585 -674 -170 -170 -286 -340
-381 -561 -83 -190 -118 -315 -214 -754 -48 -218 -74 -307 -145 -495 -161
-426 -405 -898 -670 -1300 -410 -620 -867 -1086 -1390 -1419 -184 -117 -504
-267 -702 -330 -297 -93 -494 -123 -920 -141 -353 -15 -493 -25 -698 -51
-1313 -164 -2052 -692 -2334 -1669 -56 -194 -72 -294 -78 -487 -12 -353 47
-679 190 -1043 135 -346 330 -656 557 -883 356 -358 785 -565 1355 -654 122
-19 182 -22 460 -22 342 -1 450 8 733 60 215 40 635 151 770 205 407 162 793
475 1082 879 262 366 450 789 595 1340 77 294 137 449 266 685 362 666 1028
1288 1961 1833 449 262 1106 574 1332 632 229 58 501 42 716 -42 159 -62 553
-244 760 -350 1070 -551 1846 -1191 2296 -1894 87 -137 226 -415 278 -555 19
-52 58 -182 86 -287 94 -360 183 -608 310 -867 166 -339 326 -574 555 -813
250 -262 612 -499 901 -590 410 -130 767 -204 1119 -233 201 -17 591 -6 767
21 743 112 1294 463 1673 1065 32 50 90 158 130 240 205 424 295 796 295 1214
0 176 -18 311 -65 490 -106 399 -281 716 -545 981 -396 397 -969 637 -1770
739 -235 31 -360 40 -733 56 -426 18 -595 43 -884 131 -471 142 -969 449
-1389 857 -573 555 -1112 1404 -1422 2237 -68 183 -82 235 -147 530 -93 427
-166 649 -281 855 -264 473 -756 819 -1389 978 -159 40 -346 71 -515 87 -136
12 -793 11 -930 -1z"/>
<path d="M10325 12659 c-272 -24 -569 -93 -827 -193 -455 -176 -834 -486
-1043 -854 -120 -213 -190 -422 -284 -847 -73 -327 -93 -399 -175 -614 -202
-528 -527 -1117 -869 -1571 -169 -224 -286 -359 -482 -556 -393 -394 -781
-657 -1231 -834 -349 -136 -630 -191 -1059 -205 -612 -19 -1035 -75 -1436
-189 -211 -60 -326 -104 -514 -196 -573 -280 -934 -712 -1116 -1337 -54 -186
-69 -284 -76 -483 -10 -318 27 -566 133 -887 191 -580 534 -1050 975 -1337
172 -111 395 -212 600 -271 608 -175 1307 -152 2081 71 311 89 463 156 678
300 603 402 1031 1068 1265 1969 81 310 126 432 246 663 379 734 1116 1409
2183 2000 404 224 977 485 1192 544 114 31 364 31 478 0 154 -42 437 -163 811
-347 1074 -528 1882 -1164 2358 -1853 114 -165 166 -255 251 -432 87 -183 126
-292 186 -521 199 -759 479 -1289 904 -1714 236 -236 506 -416 779 -522 108
-41 420 -132 580 -167 782 -175 1526 -132 2080 121 265 121 456 254 659 460
186 188 323 383 447 638 98 199 149 333 206 530 68 238 89 393 89 675 1 266
-9 340 -75 567 -177 608 -531 1040 -1078 1317 -500 253 -1095 374 -1981 401
-437 14 -712 67 -1068 207 -445 174 -833 437 -1227 833 -260 260 -452 496
-676 830 -270 403 -533 914 -697 1355 -69 187 -82 234 -157 574 -71 322 -124
497 -202 673 -125 277 -309 505 -570 705 -355 272 -859 452 -1398 498 -142 12
-797 11 -940 -1z"/>
<path d="M10695 5621 c-145 -23 -120 -10 -745 -411 -234 -150 -458 -293 -498
-318 -40 -25 -97 -71 -126 -102 -90 -98 -87 -69 -84 -795 l3 -630 27 -52 c15
-28 51 -72 80 -97 76 -66 1102 -783 1170 -818 152 -77 413 -77 566 0 32 16
203 131 382 257 179 125 422 296 540 379 247 173 292 211 328 281 l27 50 0
650 0 650 -23 47 c-32 64 -99 127 -217 201 -116 73 -657 419 -855 547 -165
107 -199 124 -278 144 -74 20 -227 28 -297 17z"/>
</g>
</svg>
